G04*
G04 #@! TF.GenerationSoftware,Altium Limited,Altium Designer,20.2.6 (244)*
G04*
G04 Layer_Color=65535*
%FSLAX43Y43*%
%MOMM*%
G71*
G04*
G04 #@! TF.SameCoordinates,079793DD-F239-40BC-988E-7C0AFDBFEAAC*
G04*
G04*
G04 #@! TF.FilePolarity,Positive*
G04*
G01*
G75*
%ADD10C,0.250*%
%ADD11C,0.200*%
%ADD12C,0.600*%
%ADD13C,0.127*%
%ADD14C,0.150*%
%ADD15C,0.254*%
%ADD16C,0.100*%
%ADD17C,0.050*%
D10*
X35457Y49485D02*
G03*
X35457Y49485I-125J0D01*
G01*
X49847Y44322D02*
G03*
X49847Y44322I-125J0D01*
G01*
X60388D02*
G03*
X60388Y44322I-125J0D01*
G01*
X64830Y12447D02*
G03*
X64830Y12447I-125J0D01*
G01*
X41676Y10584D02*
G03*
X41676Y10584I-125J0D01*
G01*
X30325Y43479D02*
G03*
X30325Y43479I-125J0D01*
G01*
X62258Y37084D02*
G03*
X62258Y37084I-125J0D01*
G01*
X20082Y9144D02*
G03*
X20082Y9144I-125J0D01*
G01*
D11*
X35183Y44311D02*
G03*
X35183Y48653I1520J2171D01*
G01*
X30349D02*
G03*
X30349Y44311I-1520J-2171D01*
G01*
X62023Y33909D02*
G03*
X62023Y32639I0J-635D01*
G01*
X28803Y20321D02*
G03*
X28803Y20321I-100J0D01*
G01*
X35183Y44311D02*
Y48653D01*
X50203Y45593D02*
X58763D01*
Y43053D02*
Y45593D01*
X50203Y43053D02*
X58763D01*
X50203D02*
Y45593D01*
X60744D02*
X69304D01*
Y43053D02*
Y45593D01*
X60744Y43053D02*
X69304D01*
X60744D02*
Y45593D01*
X67310Y49149D02*
Y49911D01*
X62230D02*
X67310D01*
X62230Y48387D02*
Y49911D01*
Y48387D02*
X67310D01*
Y49149D01*
X62001D02*
X62230D01*
X67310D02*
X67539D01*
X56769D02*
Y49911D01*
X51689D02*
X56769D01*
X51689Y48387D02*
Y49911D01*
Y48387D02*
X56769D01*
Y49149D01*
X51460D02*
X51689D01*
X56769D02*
X56998D01*
X55664Y11176D02*
X64224D01*
X55664D02*
Y13716D01*
X64224D01*
Y11176D02*
Y13716D01*
X40901Y14034D02*
X51301D01*
X40901Y9934D02*
Y14534D01*
X40901Y9934D02*
X51301D01*
Y14534D01*
X40901D02*
X51301D01*
X61214Y18669D02*
X66294D01*
X61214Y16129D02*
Y18669D01*
Y16129D02*
X66294D01*
Y18669D01*
X53086Y3683D02*
Y7493D01*
X41656Y3683D02*
X53086D01*
X41656D02*
Y7493D01*
X53086D01*
X58166Y15367D02*
Y19177D01*
X46736Y15367D02*
X58166D01*
X46736D02*
Y19177D01*
X58166D01*
X30349Y44311D02*
Y48653D01*
X24130Y44196D02*
X24892D01*
Y49276D01*
X23368D02*
X24892D01*
X23368Y44196D02*
Y49276D01*
Y44196D02*
X24130D01*
Y49276D02*
Y49505D01*
Y43967D02*
Y44196D01*
X41021Y49276D02*
X41783D01*
X41021Y44196D02*
Y49276D01*
Y44196D02*
X42545D01*
Y49276D01*
X41783D02*
X42545D01*
X41783Y43967D02*
Y44196D01*
Y49276D02*
Y49505D01*
X26623Y30624D02*
Y35924D01*
X62023Y30624D02*
Y32639D01*
Y33909D02*
Y35924D01*
X26623Y30624D02*
X62023D01*
X26623Y35924D02*
X62023D01*
X16507Y5204D02*
Y10544D01*
X19307Y5204D02*
Y10544D01*
X16507Y5204D02*
X19307D01*
X16507Y10544D02*
X19307D01*
X11938Y7239D02*
X15748D01*
X11938D02*
Y18669D01*
X15748D01*
Y7239D02*
Y18669D01*
X17653Y18034D02*
X18415D01*
Y23114D01*
X16891D02*
X18415D01*
X16891Y18034D02*
Y23114D01*
Y18034D02*
X17653D01*
Y23114D02*
Y23343D01*
Y17805D02*
Y18034D01*
X11430Y24638D02*
X15240D01*
X11430D02*
Y36068D01*
X15240D01*
Y24638D02*
Y36068D01*
X16891Y32893D02*
X17653D01*
X16891Y27813D02*
Y32893D01*
Y27813D02*
X18415D01*
Y32893D01*
X17653D02*
X18415D01*
X17653Y27584D02*
Y27813D01*
Y32893D02*
Y33122D01*
X6350Y28448D02*
X10160D01*
Y17018D02*
Y28448D01*
X6350Y17018D02*
X10160D01*
X6350D02*
Y28448D01*
X35183Y44311D02*
G03*
X35183Y48653I1520J2171D01*
G01*
X30349D02*
G03*
X30349Y44311I-1520J-2171D01*
G01*
X35183D02*
Y48653D01*
X30349Y44311D02*
Y48653D01*
D12*
X61323Y34924D02*
G03*
X61323Y34924I-300J0D01*
G01*
D13*
X29313Y2921D02*
X39013D01*
Y20801D01*
X29313D02*
X39013D01*
X29313Y2921D02*
Y20801D01*
D14*
X60084Y17397D02*
X60850D01*
X60467Y17780D02*
Y17014D01*
D15*
X32766Y49657D02*
X32512Y49911D01*
X32004D01*
X31750Y49657D01*
Y49403D01*
X32004Y49149D01*
X32512D01*
X32766Y48895D01*
Y48641D01*
X32512Y48387D01*
X32004D01*
X31750Y48641D01*
X33274Y49657D02*
X33528Y49911D01*
X34036D01*
X34290Y49657D01*
Y49403D01*
X34036Y49149D01*
X33782D01*
X34036D01*
X34290Y48895D01*
Y48641D01*
X34036Y48387D01*
X33528D01*
X33274Y48641D01*
X43561Y16637D02*
Y15367D01*
X43815Y15113D01*
X44323D01*
X44577Y15367D01*
Y16637D01*
X46101Y15113D02*
X45085D01*
X46101Y16129D01*
Y16383D01*
X45847Y16637D01*
X45339D01*
X45085Y16383D01*
X63754Y37465D02*
Y36195D01*
X64008Y35941D01*
X64516D01*
X64770Y36195D01*
Y37465D01*
X65278Y35941D02*
X65786D01*
X65532D01*
Y37465D01*
X65278Y37211D01*
X58040Y8890D02*
Y10414D01*
X58801D01*
X59055Y10160D01*
Y9652D01*
X58801Y9398D01*
X58040D01*
X60325Y10414D02*
X59817D01*
X59563Y10160D01*
Y9144D01*
X59817Y8890D01*
X60325D01*
X60579Y9144D01*
Y10160D01*
X60325Y10414D01*
X61087D02*
Y8890D01*
X61595Y9398D01*
X62102Y8890D01*
Y10414D01*
X61722Y42291D02*
X61468Y42545D01*
X60960D01*
X60706Y42291D01*
Y42037D01*
X60960Y41783D01*
X61468D01*
X61722Y41529D01*
Y41275D01*
X61468Y41021D01*
X60960D01*
X60706Y41275D01*
X63246Y42545D02*
X62230D01*
Y41783D01*
X62738Y42037D01*
X62992D01*
X63246Y41783D01*
Y41275D01*
X62992Y41021D01*
X62484D01*
X62230Y41275D01*
X57150Y42037D02*
X56896Y42291D01*
X56388D01*
X56134Y42037D01*
Y41783D01*
X56388Y41529D01*
X56896D01*
X57150Y41275D01*
Y41021D01*
X56896Y40767D01*
X56388D01*
X56134Y41021D01*
X58420Y40767D02*
Y42291D01*
X57658Y41529D01*
X58674D01*
X28448Y51054D02*
X28194Y51308D01*
X27686D01*
X27432Y51054D01*
Y50800D01*
X27686Y50546D01*
X28194D01*
X28448Y50292D01*
Y50038D01*
X28194Y49784D01*
X27686D01*
X27432Y50038D01*
X29972Y49784D02*
X28956D01*
X29972Y50800D01*
Y51054D01*
X29718Y51308D01*
X29210D01*
X28956Y51054D01*
X13843Y19939D02*
Y21463D01*
X14605D01*
X14859Y21209D01*
Y20701D01*
X14605Y20447D01*
X13843D01*
X14351D02*
X14859Y19939D01*
X16383Y21463D02*
X15875Y21209D01*
X15367Y20701D01*
Y20193D01*
X15621Y19939D01*
X16129D01*
X16383Y20193D01*
Y20447D01*
X16129Y20701D01*
X15367D01*
X63373Y46228D02*
Y47752D01*
X64135D01*
X64389Y47498D01*
Y46990D01*
X64135Y46736D01*
X63373D01*
X63881D02*
X64389Y46228D01*
X65913Y47752D02*
X64897D01*
Y46990D01*
X65405Y47244D01*
X65659D01*
X65913Y46990D01*
Y46482D01*
X65659Y46228D01*
X65151D01*
X64897Y46482D01*
X53975Y46355D02*
Y47879D01*
X54737D01*
X54991Y47625D01*
Y47117D01*
X54737Y46863D01*
X53975D01*
X54483D02*
X54991Y46355D01*
X56261D02*
Y47879D01*
X55499Y47117D01*
X56515D01*
X43180Y46482D02*
Y48006D01*
X43942D01*
X44196Y47752D01*
Y47244D01*
X43942Y46990D01*
X43180D01*
X43688D02*
X44196Y46482D01*
X44704Y47752D02*
X44958Y48006D01*
X45466D01*
X45720Y47752D01*
Y47498D01*
X45466Y47244D01*
X45212D01*
X45466D01*
X45720Y46990D01*
Y46736D01*
X45466Y46482D01*
X44958D01*
X44704Y46736D01*
X19939Y45720D02*
Y47244D01*
X20701D01*
X20955Y46990D01*
Y46482D01*
X20701Y46228D01*
X19939D01*
X20447D02*
X20955Y45720D01*
X22479D02*
X21463D01*
X22479Y46736D01*
Y46990D01*
X22225Y47244D01*
X21717D01*
X21463Y46990D01*
X16130Y4572D02*
Y3048D01*
X17145D01*
X18669Y4318D02*
X18415Y4572D01*
X17907D01*
X17653Y4318D01*
Y4064D01*
X17907Y3810D01*
X18415D01*
X18669Y3556D01*
Y3302D01*
X18415Y3048D01*
X17907D01*
X17653Y3302D01*
X19177Y3048D02*
X19684D01*
X19431D01*
Y4572D01*
X19177Y4318D01*
X16003Y39624D02*
X15749Y39878D01*
X15241D01*
X14987Y39624D01*
Y38608D01*
X15241Y38354D01*
X15749D01*
X16003Y38608D01*
X16510Y38354D02*
Y39878D01*
X17272D01*
X17526Y39624D01*
Y39116D01*
X17272Y38862D01*
X16510D01*
X17018D02*
X17526Y38354D01*
X18034Y39878D02*
Y39624D01*
X18542Y39116D01*
X19050Y39624D01*
Y39878D01*
X18542Y39116D02*
Y38354D01*
X20573Y39624D02*
X20319Y39878D01*
X19811D01*
X19557Y39624D01*
Y39370D01*
X19811Y39116D01*
X20319D01*
X20573Y38862D01*
Y38608D01*
X20319Y38354D01*
X19811D01*
X19557Y38608D01*
X56134Y21082D02*
X55880Y21336D01*
X55372D01*
X55118Y21082D01*
Y20066D01*
X55372Y19812D01*
X55880D01*
X56134Y20066D01*
X57658Y21336D02*
X56642D01*
Y20574D01*
X57150Y20828D01*
X57404D01*
X57658Y20574D01*
Y20066D01*
X57404Y19812D01*
X56896D01*
X56642Y20066D01*
X54737Y6096D02*
X54483Y6350D01*
X53975D01*
X53721Y6096D01*
Y5080D01*
X53975Y4826D01*
X54483D01*
X54737Y5080D01*
X56007Y4826D02*
Y6350D01*
X55245Y5588D01*
X56261D01*
X7874Y31750D02*
X7620Y32004D01*
X7112D01*
X6858Y31750D01*
Y30734D01*
X7112Y30480D01*
X7620D01*
X7874Y30734D01*
X8382Y31750D02*
X8636Y32004D01*
X9144D01*
X9398Y31750D01*
Y31496D01*
X9144Y31242D01*
X8890D01*
X9144D01*
X9398Y30988D01*
Y30734D01*
X9144Y30480D01*
X8636D01*
X8382Y30734D01*
X11938Y37973D02*
X11684Y38227D01*
X11176D01*
X10922Y37973D01*
Y36957D01*
X11176Y36703D01*
X11684D01*
X11938Y36957D01*
X13462Y36703D02*
X12446D01*
X13462Y37719D01*
Y37973D01*
X13208Y38227D01*
X12700D01*
X12446Y37973D01*
X10287Y13208D02*
X10033Y13462D01*
X9525D01*
X9271Y13208D01*
Y12192D01*
X9525Y11938D01*
X10033D01*
X10287Y12192D01*
X10795Y11938D02*
X11303D01*
X11049D01*
Y13462D01*
X10795Y13208D01*
X67057Y18161D02*
Y16637D01*
X67818D01*
X68072Y16891D01*
Y17145D01*
X67818Y17399D01*
X67057D01*
X67818D01*
X68072Y17653D01*
Y17907D01*
X67818Y18161D01*
X67057D01*
X68580Y16637D02*
Y17653D01*
X69088Y18161D01*
X69596Y17653D01*
Y16637D01*
Y17399D01*
X68580D01*
X70104Y18161D02*
X71119D01*
X70612D01*
Y16637D01*
X28765Y23304D02*
X29781D01*
Y23050D01*
X28765Y22034D01*
Y21781D01*
X31305Y23050D02*
X31051Y23304D01*
X30543D01*
X30289Y23050D01*
Y22796D01*
X30543Y22542D01*
X31051D01*
X31305Y22288D01*
Y22034D01*
X31051Y21781D01*
X30543D01*
X30289Y22034D01*
X32828Y23304D02*
X31813D01*
Y21781D01*
X32828D01*
X31813Y22542D02*
X32320D01*
X34352Y23050D02*
X34098Y23304D01*
X33590D01*
X33336Y23050D01*
Y22034D01*
X33590Y21781D01*
X34098D01*
X34352Y22034D01*
Y22542D01*
X33844D01*
X34860Y23304D02*
Y21781D01*
Y22542D01*
X35875D01*
Y23304D01*
Y21781D01*
X37399Y23304D02*
X36383D01*
Y21781D01*
X37399D01*
X36383Y22542D02*
X36891D01*
X37907Y23304D02*
X38922Y21781D01*
Y23304D02*
X37907Y21781D01*
D16*
X61573Y35974D02*
G03*
X61573Y35974I-500J0D01*
G01*
X40901Y9934D02*
X51301D01*
X40901D02*
Y14534D01*
X40901D02*
X51301D01*
Y9934D02*
Y14534D01*
X40901Y13234D02*
X51301D01*
X26673Y29674D02*
Y36874D01*
X61973Y29674D02*
Y36874D01*
X26673Y29674D02*
X61973D01*
X26673Y36874D02*
X61973D01*
X36203Y46482D02*
X37203D01*
X36703Y45982D02*
Y46982D01*
X45601Y11684D02*
X46601D01*
X46101Y11184D02*
Y12184D01*
X28829Y45982D02*
Y46982D01*
X28329Y46482D02*
X29329D01*
X43823Y33274D02*
X44823D01*
X44323Y32774D02*
Y33774D01*
D17*
X29033Y2667D02*
Y21001D01*
X39293D01*
Y2667D02*
Y21001D01*
X29033Y2667D02*
X39293D01*
M02*
