G04*
G04 #@! TF.GenerationSoftware,Altium Limited,Altium Designer,20.2.6 (244)*
G04*
G04 Layer_Physical_Order=1*
G04 Layer_Color=255*
%FSLAX43Y43*%
%MOMM*%
G71*
G04*
G04 #@! TF.SameCoordinates,079793DD-F239-40BC-988E-7C0AFDBFEAAC*
G04*
G04*
G04 #@! TF.FilePolarity,Positive*
G04*
G01*
G75*
%ADD11C,0.200*%
%ADD15C,0.254*%
%ADD16C,0.100*%
%ADD17C,0.050*%
%ADD32O,2.000X1.000*%
%ADD33O,2.000X1.000*%
%ADD34R,1.850X1.850*%
%ADD35C,1.850*%
%ADD36C,1.400*%
%ADD37C,1.700*%
%ADD38R,1.700X1.700*%
%ADD39C,1.500*%
%ADD40R,1.500X1.500*%
%ADD41C,1.200*%
%ADD42R,1.500X1.500*%
%ADD43C,1.408*%
%ADD44R,1.408X1.408*%
%ADD45C,1.270*%
D11*
X35183Y44311D02*
G03*
X35183Y48653I1520J2171D01*
G01*
X30349D02*
G03*
X30349Y44311I-1520J-2171D01*
G01*
X35183D02*
Y48653D01*
X30349Y44311D02*
Y48653D01*
D15*
X30226Y25654D02*
Y29337D01*
X30353Y29464D01*
X41783Y38354D02*
Y42926D01*
Y38354D02*
X43053Y37084D01*
X36703Y45212D02*
X37203D01*
X39489Y42926D01*
X41783D01*
X67437Y44196D02*
X67564D01*
X68102Y40162D02*
X71628Y43688D01*
X58831Y40162D02*
X68102D01*
X63911Y40670D02*
X67437Y44196D01*
X56799Y40670D02*
X63911D01*
X55753Y37084D02*
X58831Y40162D01*
X66548Y53848D02*
X71628Y48768D01*
Y43688D02*
Y48768D01*
X53213Y37084D02*
X56799Y40670D01*
X67564Y44323D02*
X68580Y45339D01*
X55372Y44323D02*
X57023D01*
X48133Y37084D02*
X55372Y44323D01*
X45831Y38211D02*
X51943Y44323D01*
X45831Y37322D02*
Y38211D01*
X45593Y37084D02*
X45831Y37322D01*
X15494Y2286D02*
X36068D01*
X3810Y13970D02*
X15494Y2286D01*
X36068D02*
X37973Y4191D01*
X3810Y13970D02*
Y29972D01*
X12192Y6477D02*
X17780D01*
X4826Y13843D02*
X12192Y6477D01*
X4826Y13843D02*
Y21082D01*
X24003Y29464D02*
X27813D01*
X23495Y29972D02*
X24003Y29464D01*
X24130Y10414D02*
X30353Y4191D01*
X24130Y10414D02*
Y18415D01*
X37904Y16960D02*
X37973Y16891D01*
X36888Y16960D02*
X37904D01*
X32512Y21336D02*
X36888Y16960D01*
X21209Y25654D02*
X25527Y21336D01*
X32512D01*
X20574Y25527D02*
X26670Y19431D01*
X30353D01*
X20574Y25527D02*
Y34925D01*
X21209Y34842D02*
X26372Y40005D01*
X21209Y25654D02*
Y34842D01*
X27432Y40005D02*
X30353Y37084D01*
X26372Y40005D02*
X27432D01*
X20574Y34925D02*
X26162Y40513D01*
X17653Y24384D02*
X19812Y26543D01*
Y34881D01*
X25952Y41021D01*
X25741Y41529D02*
X33528D01*
X18715Y27224D02*
X19177Y27686D01*
Y34965D01*
X17653Y26543D02*
X17819D01*
X25952Y41021D02*
X31496D01*
X17819Y26543D02*
X18501Y27224D01*
X18715D01*
X19177Y34965D02*
X25741Y41529D01*
X26162Y40513D02*
X29464D01*
X32893Y37084D01*
X31496Y41021D02*
X35433Y37084D01*
X33528Y41529D02*
X37973Y37084D01*
X25527Y42037D02*
X35560D01*
X40513Y37084D01*
X17653Y34163D02*
X25527Y42037D01*
X30353Y16891D02*
X32131Y15113D01*
X39116D02*
X40513Y16510D01*
X32131Y15113D02*
X39116D01*
X40513Y16510D02*
Y18415D01*
X47506Y25408D02*
X53296D01*
X57162Y29274D01*
X40513Y18415D02*
X47506Y25408D01*
X58103Y29274D02*
X58293Y29464D01*
X57162Y29274D02*
X58103D01*
X61192Y39243D02*
X63119Y37316D01*
X58293Y37084D02*
X60452Y39243D01*
X61192D01*
X63119Y27686D02*
Y37316D01*
X59563Y24130D02*
X63119Y27686D01*
X50292Y24130D02*
X59563D01*
X37973Y11811D02*
X50292Y24130D01*
X45593Y27051D02*
Y29464D01*
X37973Y19431D02*
X45593Y27051D01*
Y29464D02*
Y34544D01*
X43053Y37084D02*
X45593Y34544D01*
X48133Y37084D02*
Y37147D01*
X55753Y37084D02*
X55880D01*
X51816Y53848D02*
X66548D01*
X41783Y50546D02*
X48514D01*
X51816Y53848D01*
X40513Y29464D02*
X43053D01*
X17780Y6477D02*
X17907Y6604D01*
X41783Y42926D02*
X44196D01*
X50419Y49149D01*
X28829Y46482D02*
X34933D01*
X36203Y45212D01*
X36703D01*
X28829Y47752D02*
X34933D01*
X36203Y46482D01*
X36703D01*
X56261Y17272D02*
Y17389D01*
X51943Y44323D02*
X53086Y45466D01*
Y48895D01*
X58652Y50949D02*
X59563Y50038D01*
X55140Y50949D02*
X58652D01*
X53086Y48895D02*
X55140Y50949D01*
X59563Y48260D02*
Y50038D01*
X61686Y45121D02*
X62484Y44323D01*
X61686Y45121D02*
Y46137D01*
X59563Y48260D02*
X61686Y46137D01*
X50484Y50230D02*
X52705Y52451D01*
X60960Y49149D02*
Y50927D01*
X52705Y52451D02*
X59436D01*
X60960Y50927D01*
X58039Y45339D02*
Y49149D01*
X57023Y44323D02*
X58039Y45339D01*
X17399Y26543D02*
X17653D01*
X12827Y21971D02*
X17399Y26543D01*
X11303Y21971D02*
X12827D01*
X8255Y18923D02*
X11303Y21971D01*
X5969Y22225D02*
X9017D01*
X4826Y21082D02*
X5969Y22225D01*
X9017D02*
X13335Y26543D01*
X13843Y9144D02*
X17907D01*
X13843Y16764D02*
X17653D01*
X8255Y26543D02*
X13335D01*
Y34163D02*
X17653D01*
X39997Y50546D02*
X41783D01*
X37203Y47752D02*
X39997Y50546D01*
X36703Y47752D02*
X37203D01*
X50419Y49149D02*
X50484Y49214D01*
Y50230D01*
X68580Y45339D02*
Y49149D01*
X24130Y50546D02*
X24198D01*
X28261Y46482D01*
X28829D01*
X24130Y42926D02*
X26043D01*
X28329Y45212D01*
X28829D01*
X46101Y11684D02*
X48895Y8890D01*
X51181D01*
X52197Y9906D01*
Y13208D01*
X56261Y17272D01*
X56515D01*
X59182Y19939D01*
X62484D01*
X65024Y17399D01*
X62484Y12446D02*
Y17399D01*
X51181Y5588D02*
Y5844D01*
X57404Y12067D01*
Y12446D01*
X43561Y5588D02*
Y11684D01*
X48641D02*
Y17272D01*
D16*
X61573Y35974D02*
G03*
X61573Y35974I-500J0D01*
G01*
X40901Y9934D02*
X51301D01*
X40901D02*
Y14534D01*
X40901D02*
X51301D01*
Y9934D02*
Y14534D01*
X40901Y13234D02*
X51301D01*
X26673Y29674D02*
Y36874D01*
X61973Y29674D02*
Y36874D01*
X26673Y29674D02*
X61973D01*
X26673Y36874D02*
X61973D01*
X36203Y46482D02*
X37203D01*
X36703Y45982D02*
Y46982D01*
X45601Y11684D02*
X46601D01*
X46101Y11184D02*
Y12184D01*
X28829Y45982D02*
Y46982D01*
X28329Y46482D02*
X29329D01*
X43823Y33274D02*
X44823D01*
X44323Y32774D02*
Y33774D01*
D17*
X29033Y2667D02*
Y21001D01*
X39293D01*
Y2667D02*
Y21001D01*
X29033Y2667D02*
X39293D01*
D32*
X36703Y45212D02*
D03*
X28829Y47752D02*
D03*
D33*
X36703Y46482D02*
D03*
Y47752D02*
D03*
X28829Y45212D02*
D03*
Y46482D02*
D03*
D34*
X51943Y44323D02*
D03*
X62484D02*
D03*
Y12446D02*
D03*
D35*
X57023Y44323D02*
D03*
X67564D02*
D03*
X57404Y12446D02*
D03*
D36*
X68580Y49149D02*
D03*
X60960D02*
D03*
X58039D02*
D03*
X50419D02*
D03*
X24130Y42926D02*
D03*
Y50546D02*
D03*
X41783D02*
D03*
Y42926D02*
D03*
X17653Y16764D02*
D03*
Y24384D02*
D03*
Y34163D02*
D03*
Y26543D02*
D03*
D37*
X48641Y11684D02*
D03*
X46101D02*
D03*
D38*
X43561D02*
D03*
D39*
X65024Y17399D02*
D03*
X27813Y29464D02*
D03*
X30353D02*
D03*
X32893D02*
D03*
X35433D02*
D03*
X37973D02*
D03*
X40513D02*
D03*
X43053D02*
D03*
X45593D02*
D03*
X48133D02*
D03*
X50673D02*
D03*
X53213D02*
D03*
X55753D02*
D03*
X58293D02*
D03*
X60833D02*
D03*
X27813Y37084D02*
D03*
X30353D02*
D03*
X32893D02*
D03*
X35433D02*
D03*
X37973D02*
D03*
X40513D02*
D03*
X43053D02*
D03*
X45593D02*
D03*
X48133D02*
D03*
X50673D02*
D03*
X53213D02*
D03*
X55753D02*
D03*
X58293D02*
D03*
X17907Y6604D02*
D03*
D40*
X62484Y17399D02*
D03*
D41*
X51181Y5588D02*
D03*
X43561D02*
D03*
X56261Y17272D02*
D03*
X48641D02*
D03*
X13843Y9144D02*
D03*
Y16764D02*
D03*
X13335Y26543D02*
D03*
Y34163D02*
D03*
X8255Y26543D02*
D03*
Y18923D02*
D03*
D42*
X60833Y37084D02*
D03*
X17907Y9144D02*
D03*
D43*
X37973Y11811D02*
D03*
Y16891D02*
D03*
Y9271D02*
D03*
X30353Y16891D02*
D03*
Y14351D02*
D03*
X37973Y6731D02*
D03*
X30353Y4191D02*
D03*
X37973D02*
D03*
X30353Y19431D02*
D03*
D44*
X37973D02*
D03*
D45*
X30226Y25654D02*
D03*
X3810Y29972D02*
D03*
X23495D02*
D03*
X24130Y18415D02*
D03*
M02*
