M48
;Layer_Color=9474304
;FILE_FORMAT=4:3
METRIC,LZ
;TYPE=PLATED
T1F00S00C0.700
T2F00S00C0.711
T3F00S00C0.850
T4F00S00C0.900
T5F00S00C1.100
%
T01
X0051181Y0005588
X0048641Y0017272
X0056261
X0043561Y0005588
X0013843Y0009144
Y0016764
X0008255Y0018923
Y0026543
X0013335
Y0034163
T02
X002413Y0018415
X0023495Y0029972
X0030226Y0025654
X000381Y0029972
T03
X0017653Y0016764
Y0024384
Y0026543
Y0034163
X002413Y0042926
Y0050546
X0041783
Y0042926
X0050419Y0049149
X0058039
X006096
X006858
T04
X0045593Y0029464
X0048133
X0050673
X0053213
X0055753
X0058293
X0060833
X0062484Y0017399
X0065024
X0037973Y0016891
Y0019431
Y0011811
Y0009271
Y0006731
Y0004191
X0030353
Y0014351
Y0016891
Y0019431
Y0029464
X0027813
X0032893
X0035433
X0037973
X0040513
X0043053
X0017907Y0009144
Y0006604
X0027813Y0037084
X0030353
X0032893
X0035433
X0037973
X0040513
X0043053
X0036703Y0045212
Y0046482
Y0047752
X0028829
Y0046482
Y0045212
X0045593Y0037084
X0048133
X0050673
X0053213
X0055753
X0058293
X0060833
T05
X0046101Y0011684
X0048641
X0057404Y0012446
X0062484
X0043561Y0011684
X0051943Y0044323
X0057023
X0062484
X0067564
M30
